<svg width="136" height="180" viewBox="0 0 136 180" fill="none" xmlns="http://www.w3.org/2000/svg">
<path fill-rule="evenodd" clip-rule="evenodd" d="M19.7981 49.4737C19.7981 36.0409 30.6876 25.1514 44.1204 25.1514C57.5531 25.1514 68.4426 36.0409 68.4426 49.4737V51.211C68.4426 52.1239 68.3923 53.0251 68.2943 53.9119C78.4172 56.8541 85.8156 66.1983 85.8156 77.2705V79.0078C85.8156 92.4406 74.9261 103.33 61.4934 103.33C54.229 103.33 47.7084 100.145 43.2517 95.0958C38.795 100.145 32.2744 103.33 25.01 103.33C11.5772 103.33 0.687805 92.4406 0.687805 79.0078V77.2705C0.687805 65.5894 8.92229 55.8316 19.9031 53.4853C19.8336 52.7365 19.7981 51.9779 19.7981 51.211V49.4737Z" fill="#7480FF"/>
<path fill-rule="evenodd" clip-rule="evenodd" d="M74.4843 123.669C66.2399 133.585 51.5178 134.94 41.6017 126.695C31.6855 118.451 30.3304 103.729 38.5748 93.8128L39.6411 92.5303C40.2014 91.8564 40.7916 91.2221 41.4082 90.6275C35.7413 82.2426 36.0148 70.8039 42.8104 62.6303L43.8767 61.3479C52.1211 51.4317 66.8431 50.0765 76.7593 58.321C82.1219 62.7795 84.9808 69.1325 85.1716 75.5954C91.5607 74.6032 98.3288 76.2543 103.691 80.7128C113.608 88.9572 114.963 103.679 106.718 113.595L105.652 114.878C98.4827 123.501 86.4151 125.65 76.869 120.643C76.4607 121.238 76.0213 121.82 75.5506 122.386L74.4843 123.669Z" fill="#7480FF"/>
<path fill-rule="evenodd" clip-rule="evenodd" d="M68.6549 41.6365C68.6549 28.0544 79.6653 17.044 93.2473 17.044C106.829 17.044 117.84 28.0544 117.84 41.6365V43.3931C117.84 44.3162 117.789 45.2273 117.69 46.124C127.925 49.099 135.406 58.547 135.406 69.7422V71.4988C135.406 85.0808 124.395 96.0912 110.813 96.0912C103.468 96.0912 96.8753 92.8711 92.3691 87.7656C87.8629 92.8711 81.2698 96.0912 73.9247 96.0912C60.3427 96.0912 49.3323 85.0808 49.3323 71.4988V69.7422C49.3323 57.9314 57.6582 48.0652 68.761 45.6927C68.6908 44.9356 68.6549 44.1685 68.6549 43.3931V41.6365Z" fill="#7480FF"/>
<path fill-rule="evenodd" clip-rule="evenodd" d="M67.9665 30.2218C67.9665 16.6397 78.9769 5.62929 92.559 5.62929C106.141 5.62929 117.151 16.6397 117.151 30.2218V31.9784C117.151 32.9014 117.101 33.8126 117.002 34.7093C127.237 37.6842 134.718 47.1322 134.718 58.3274V60.084C134.718 73.6661 123.707 84.6765 110.125 84.6765C102.78 84.6765 96.1869 81.4564 91.6807 76.3509C87.1745 81.4564 80.5815 84.6765 73.2364 84.6765C59.6543 84.6765 48.6439 73.6661 48.6439 60.084V58.3274C48.6439 46.5166 56.9699 36.6504 68.0726 34.278C68.0024 33.5209 67.9665 32.7538 67.9665 31.9784V30.2218Z" fill="#7480FF"/>
<path fill-rule="evenodd" clip-rule="evenodd" d="M28.1179 22.5004C28.1179 11.3562 37.1521 2.32201 48.2963 2.32201C59.4406 2.32201 68.4748 11.3562 68.4748 22.5004V23.9418C68.4748 24.6991 68.4331 25.4468 68.3518 26.1825C76.75 28.6235 82.888 36.3757 82.888 45.5615V47.0028C82.888 58.1471 73.8538 67.1812 62.7095 67.1812C56.6828 67.1812 51.2731 64.5391 47.5757 60.3499C43.8783 64.5391 38.4686 67.1812 32.4419 67.1812C21.2976 67.1812 12.2634 58.1471 12.2634 47.0028V45.5615C12.2634 35.8706 19.095 27.7752 28.205 25.8286C28.1474 25.2074 28.1179 24.578 28.1179 23.9418V22.5004Z" fill="#7480FF"/>
<path fill-rule="evenodd" clip-rule="evenodd" d="M44.0804 41.6136C44.0804 30.8729 52.7874 22.1659 63.5281 22.1659C74.2688 22.1659 82.9759 30.8729 82.9759 41.6136V43.0028C82.9759 43.7327 82.9357 44.4533 82.8573 45.1624C90.9515 47.515 96.8671 54.9865 96.8671 63.8396V65.2288C96.8671 75.9695 88.1601 84.6765 77.4194 84.6765C71.6109 84.6765 66.3971 82.13 62.8336 78.0926C59.27 82.13 54.0563 84.6765 48.2477 84.6765C37.507 84.6765 28.8 75.9694 28.8 65.2287V63.8396C28.8 54.4996 35.3842 46.6974 44.1643 44.8213C44.1088 44.2226 44.0804 43.616 44.0804 43.0027V41.6136Z" fill="#7480FF"/>
<path fill-rule="evenodd" clip-rule="evenodd" d="M4.95827 65.1651C9.30181 71.7997 16.8002 76.1826 25.3222 76.1826C29.4031 76.1826 33.2493 75.1775 36.6267 73.4015C38.0358 76.3609 40.0937 79.0693 42.7796 81.3024C52.6957 89.5468 67.4178 88.1917 75.6622 78.2755L76.7285 76.993C77.1992 76.4269 77.6386 75.8451 78.0469 75.2497C87.593 80.2571 99.6606 78.1079 106.83 69.4849L107.5 68.6785C108.683 68.8533 109.894 68.9438 111.126 68.9438C121.664 68.9438 130.654 62.3153 134.154 53C134.725 55.0785 135.03 57.267 135.03 59.5268V61.2834C135.03 62.3353 134.964 63.3718 134.835 64.3889C135.411 66.4751 135.718 68.6724 135.718 70.9415V72.6981C135.718 85.8932 125.326 96.6611 112.28 97.2639C112.963 103.357 111.26 109.708 107.03 114.795L105.964 116.077C98.7949 124.7 86.7273 126.85 77.1812 121.842C76.7729 122.437 76.3335 123.019 75.8628 123.585L74.7965 124.868C66.5521 134.784 51.83 136.139 41.9139 127.895C34.3356 121.594 31.7574 111.51 34.6429 102.679C31.7723 103.871 28.6241 104.529 25.3222 104.529C11.8894 104.529 1 93.6399 1 80.2071V78.4698C1 73.5591 2.45535 68.9882 4.95827 65.1651Z" fill="#7480FF"/>
<path d="M62.5829 89H74.1585L83.5927 179.11H53L62.5829 89Z" fill="black"/>
<path d="M62.5 89H74.2413L79.2125 137.5H57.5L62.5 89Z" fill="black"/>
<path fill-rule="evenodd" clip-rule="evenodd" d="M59.3317 127.397C41.2283 114.363 39.0278 94.7784 40.2943 86.2293L48.4734 87.441C47.535 93.7748 49.193 109.909 64.1629 120.687L59.3317 127.397Z" fill="black"/>
<path fill-rule="evenodd" clip-rule="evenodd" d="M73.0049 114.168C91.1082 101.134 93.3087 81.5492 92.0422 73L83.8632 74.2117C84.8015 80.5455 83.1435 96.6799 68.1737 107.458L73.0049 114.168Z" fill="black"/>
<path fill-rule="evenodd" clip-rule="evenodd" d="M47.7545 57.233C47.7545 48.2678 55.0222 41 63.9875 41C72.9527 41 80.2204 48.2678 80.2204 57.233V58.3925C80.2204 59.0018 80.1869 59.6032 80.1215 60.1951C86.8776 62.1588 91.8154 68.3953 91.8154 75.785V76.9445C91.8154 85.9097 84.5477 93.1774 75.5825 93.1774C70.7341 93.1774 66.3822 91.0519 63.4077 87.6819C60.4332 91.0519 56.0813 93.1774 51.233 93.1774C42.2678 93.1774 35 85.9097 35 76.9445V75.785C35 67.9889 40.4958 61.4764 47.8245 59.9104C47.7782 59.4107 47.7545 58.9044 47.7545 58.3925V57.233Z" fill="#7480FF"/>
<path fill-rule="evenodd" clip-rule="evenodd" d="M76.9381 63.9881C76.9381 57.7054 82.0313 52.6122 88.314 52.6122C94.5967 52.6122 99.6898 57.7054 99.6898 63.9881V64.8006C99.6898 65.2276 99.6663 65.6491 99.6204 66.0639C104.355 67.44 107.815 71.8104 107.815 76.989V77.8016C107.815 84.0843 102.722 89.1774 96.4395 89.1774C93.0419 89.1774 89.9921 87.6879 87.9077 85.3262C85.8232 87.6879 82.7734 89.1774 79.3758 89.1774C73.0931 89.1774 67.9999 84.0843 67.9999 77.8016V76.989C67.9999 71.5257 71.8513 66.9618 76.9872 65.8644C76.9547 65.5142 76.9381 65.1593 76.9381 64.8006V63.9881Z" fill="#7480FF"/>
<path fill-rule="evenodd" clip-rule="evenodd" d="M61.7568 30.5017C68.9818 35.5457 70.7499 45.4917 65.7059 52.7167C60.6619 59.9417 50.7159 61.7098 43.4909 56.6658L42.5565 56.0135C42.0654 55.6707 41.5996 55.3052 41.1594 54.9195C35.7757 59.2595 27.9718 59.7301 22.0164 55.5725L21.082 54.9201C13.857 49.8762 12.0889 39.9302 17.1329 32.7052C19.8607 28.7979 24.0221 26.4866 28.4115 25.9855C27.3691 21.6924 28.1046 16.9893 30.8323 13.0821C35.8763 5.85705 45.8223 4.08897 53.0473 9.13295L53.9817 9.7853C60.2646 14.1715 62.4209 22.2646 59.5596 29.0518C59.9885 29.2956 60.4098 29.5614 60.8223 29.8494L61.7568 30.5017Z" fill="#7480FF"/>
</svg>
